<svg xmlns="http://www.w3.org/2000/svg" viewBox="0 0 256.93 94.61"><path d="M109 19.62a1.7 1.7 0 01-.27-1.43 8.18 8.18 0 01.45-1.42 2 2 0 00.67.18 2 2 0 01.66.18.77.77 0 01.8-.45 3.34 3.34 0 011.12.85c.26.32.57.7.93 1.11.06-.06 0-.12 0-.18a.31.31 0 01-.14-.27q.45-.17.54.18a2.9 2.9 0 00.17.54 2.57 2.57 0 00.63.71 1.67 1.67 0 01.53.71c.12.24.24.46.36.67a1.2 1.2 0 00.53.49 1.9 1.9 0 01.14.44.74.74 0 00.22.45 3.05 3.05 0 00.49.93c.2.27.46.58.75.94a.5.5 0 01.18.35.52.52 0 00.18.36 6.81 6.81 0 01.36.62.77.77 0 00.53.45c.06.12.06.17 0 .17a.08.08 0 00-.09.09 1.57 1.57 0 01.53.67 1.1 1.1 0 00.63.58 2.92 2.92 0 001.29 1.91 2.92 2.92 0 011.29 1.65 35.18 35.18 0 003.34-2.63 43.44 43.44 0 013.42-2.71.41.41 0 01.05-.18.64.64 0 000-.27 1 1 0 00.45.09q.7-.52 1.38-1.11a9 9 0 011.46-1l.85-.36a7.73 7.73 0 00.85-.44 5.9 5.9 0 001.06-1 2.63 2.63 0 011.25-.8 1.54 1.54 0 01.09-.63.38.38 0 01.4.05 1.16 1.16 0 00.31.22 7.28 7.28 0 014.9-.71c.11 0 .17-.05.17-.13s.06-.08.18 0c.12.48.34.71.67.71a4.66 4.66 0 01.93.09c-.17.18-.19.33 0 .45a.46.46 0 01.22.35.56.56 0 01-.58-.35c-.09-.24-.25-.3-.49-.18a1.83 1.83 0 01.72.89 10.24 10.24 0 00.62 1.24c.06.06.13.06.22 0a.18.18 0 01.22 0 1.57 1.57 0 00.4.8 1.52 1.52 0 01.4.63 1.47 1.47 0 000 1.07 4.63 4.63 0 01.31 1.15c.12 0 .16-.06.13-.18s0-.14.14-.08a.58.58 0 010 .62 1 1 0 00-.09.71c0 .12.06.13.18.05s.17-.11.17-.05a3 3 0 01-.62 1.34 4.58 4.58 0 00-.71 1.15l-.31.18a.56.56 0 01-.31.09 3.73 3.73 0 00-.49.67 2.19 2.19 0 01-.58.66h-.27a5 5 0 00-1 .85 8.42 8.42 0 01-1.24 1.11 5.88 5.88 0 00-.63.36l-.53.36H140a1.65 1.65 0 00-.62.57c-.12.21-.24.4-.36.58a1.18 1.18 0 00-.84.14c-.27.14-.55.31-.85.48a33.72 33.72 0 01-2.94 2.1 16.4 16.4 0 00-2.75 2.18 16 16 0 004 2.49V43q1.78.88 4.14 1.95a30.35 30.35 0 004.67 1.7 4.32 4.32 0 011.07.31 4.8 4.8 0 001.07.31.7.7 0 00.44 0 1.11 1.11 0 01.54 0 1.61 1.61 0 01.58.09 1.19 1.19 0 00.66 0 3.59 3.59 0 011-.09 1.43 1.43 0 00.71 1.06.64.64 0 00.27-.08.18.18 0 01.27.08.92.92 0 01-.76.49.77.77 0 00-.67.49.59.59 0 00.23.14c.08 0 .16.13.22.31a4.49 4.49 0 01-.49.44l-.58.45a.51.51 0 01-.09.53l-.35.36a.94.94 0 01-.54-.09c-.12.06-.16.12-.13.18s0 .12-.14.18a15 15 0 00-2 .44 7.12 7.12 0 01-2 .27c-.12.06-.13.1 0 .13a.21.21 0 01.13.22 1.11 1.11 0 00-.58.14 2 2 0 00-.4.31c-.3-.12-.67-.25-1.11-.4a1.66 1.66 0 00-1.11 0 5.65 5.65 0 00-.94-.26 4.56 4.56 0 01-.93-.27q-.09 0-.09.18c-.77-.3-1.56-.64-2.36-1a23.63 23.63 0 01-2.36-1.29c-.12 0-.19 0-.22.09s-.11.06-.22 0c-.84-.47-1.67-1-2.5-1.51s-1.66-1.13-2.49-1.78c-.12-.06-.19 0-.22 0s-.08.08-.13 0c-.12-.41-.48-.56-1.07-.44a3.86 3.86 0 00-1-.85 10.45 10.45 0 00-1.16-.58 40.35 40.35 0 01-5.38 4.32q-3 2-6.37 3.87a1.31 1.31 0 00-.35-.71 4.1 4.1 0 00-2 .93 8.23 8.23 0 01-1.87 1.2.68.68 0 00-.44.09 1.7 1.7 0 01-.45.31c-.18.09-.32 0-.44-.31a1.61 1.61 0 01-1.65 0 2.1 2.1 0 00-1.65-.26.67.67 0 000-.81 2 2 0 01-.35-.71.9.9 0 01.09-1.15 2 2 0 00.44-1.43 7.81 7.81 0 001.38-1.11 3.64 3.64 0 00.94-1.56 5.67 5.67 0 001.42-1.38 11.9 11.9 0 011.25-1.47.62.62 0 00.17-.44 2 2 0 00.85-.8 7.26 7.26 0 01.76-1.07 9 9 0 011.15-1 2 2 0 00.8-1.25 2 2 0 01.49-.13c.21 0 .26-.19.14-.49.23 0 .38-.06.44-.18a16 16 0 001.38-1.55 5.52 5.52 0 011.56-1.38c-.18-.24-.06-.48.35-.72l-1.73-2.76a25.22 25.22 0 00-1.91-2.58 1.36 1.36 0 00-.4-1.06 4.63 4.63 0 01-.85-1.16c-.12-.3-.25-.61-.4-.94a9.41 9.41 0 01-.4-1c-.24-.53-.51-1-.8-1.56a8.21 8.21 0 01-.71-1.47 7.12 7.12 0 01-.4-1.51 4.64 4.64 0 00-.41-1.33 2.15 2.15 0 01-.08-1.34c-.24-.23-.32-.28-.23-.13s-.16.32-.34.44zm1.51-1.78c-.12-.18-.24-.27-.35-.27v.18a.08.08 0 00.09.09zM140.86 20a.24.24 0 00-.27-.27.6.6 0 00-.44.18q.27-.09.36 0a.47.47 0 00.35.09zm8.55 28.83a.74.74 0 00-.27.45.42.42 0 00.27-.45" data-name="Layer 1"/><g data-name="Layer 3"><path d="M4.16 76.72c0-1.27-.37-1.91-1.09-1.91h-.56a5.77 5.77 0 01-1 .1C.52 75 0 74.48 0 73.49s.65-1.55 2-1.55h.29a1.24 1.24 0 01.27 0l1.55.2a16.17 16.17 0 001.84.1c.49 0 1.11 0 1.88-.1.75-.06 1.51-.14 2.17-.14h1.69a16.22 16.22 0 013.6.33 7.29 7.29 0 011.93.87 6.41 6.41 0 011.55 1.37 6.78 6.78 0 011 1.77 5.67 5.67 0 01.38 2.06A5.85 5.85 0 0118 83.24c-1.44 1.13-3.54 1.7-6.32 1.7h-3.1a3.33 3.33 0 01-.53 0c-.09 0-.14.06-.15.11a3.69 3.69 0 000 .41v.63a30.4 30.4 0 00.19 4.75c.09.36.39.53.9.53a1.28 1.28 0 00.29 0 1.87 1.87 0 00.3 0h.79a.32.32 0 01.13 0c1 0 1.52.48 1.52 1.45s-.67 1.59-2 1.59a.24.24 0 00-.13 0h-.17a.33.33 0 01-.15 0L8 94a13.28 13.28 0 00-1.92-.1 12.24 12.24 0 00-1.75.1l-1.84.26a.45.45 0 00-.2 0H2q-2 0-2-1.56a1.39 1.39 0 01.45-1.07 1.54 1.54 0 011.07-.41 4.61 4.61 0 011 .1h.26a1.42 1.42 0 00.3 0c.72 0 1.09-.64 1.09-1.91zM8 75.34a4 4 0 00-.13 1.48v4.69c0 .28.26.46.79.53h1.73l1.94-.1a12.64 12.64 0 001.67-.23 3 3 0 002.41-3.27q0-3.6-4.62-3.6c-2.29 0-3.55.16-3.79.5zM27.72 73.52l-.13 4.92a6.25 6.25 0 012-1.07 7.23 7.23 0 012.23-.32 8 8 0 012.67.43 5.83 5.83 0 012 1.22 5.52 5.52 0 011.31 1.9 6.49 6.49 0 01.46 2.46v6.7a2.77 2.77 0 000 .59c.07.71.16 1.06.3 1.06h.23a1.22 1.22 0 00.33-.07 1.22 1.22 0 01.33-.07h.33c1.12 0 1.68.49 1.68 1.46s-.68 1.48-2 1.48a9.87 9.87 0 01-1.23-.1L37 94a7.9 7.9 0 00-.89 0H35a12.19 12.19 0 01-1.69.2 2 2 0 01-1.32-.46 1.47 1.47 0 01-.52-1.16 1.28 1.28 0 01.47-1 1.72 1.72 0 011.06-.37 3 3 0 011 .2h.37c.24 0 .38-.53.42-1.58v-.57-.92-.66-2.31a9.71 9.71 0 00-.56-4.06 2.75 2.75 0 00-2.71-1.42 3.5 3.5 0 00-3.16 1.49 7.06 7.06 0 00-.73 3.49v2.56a1.48 1.48 0 010 .38v1.9a3.54 3.54 0 000 .64c.06.75.2 1.12.39 1.12h.23l.4-.07a1.42 1.42 0 01.38-.08h.35c1 0 1.55.47 1.55 1.39s-.64 1.55-1.92 1.55a12.26 12.26 0 01-1.38-.1l-1-.16h-.89a13.34 13.34 0 00-1.42.1l-1.07.1h-.58c-1.21 0-1.81-.53-1.81-1.58 0-.9.57-1.36 1.71-1.36a3.39 3.39 0 01.73.07 2 2 0 00.42.07h.23s.08-.19.1-.56a29.57 29.57 0 00.2-3.84v-2.81-2.8a50.73 50.73 0 00-.2-5.84c-.07-.53-.17-.82-.3-.86a.43.43 0 01-.21.05h-.31a1.54 1.54 0 01-.43.06h-.43q-1.59 0-1.59-1.41a1.33 1.33 0 01.53-1.09 2 2 0 011.29-.43c.15 0 .53 0 1.12.1h2.04a2 2 0 01.35-.05h.35c.83 0 1.25.49 1.25 1.49zM50.46 94.61a7.16 7.16 0 01-5.65-2.41 9.36 9.36 0 01-2.11-6.37 9.18 9.18 0 012.11-6.34 7.24 7.24 0 015.75-2.44 7.37 7.37 0 015.77 2.38 9.12 9.12 0 012.08 6.3 9.17 9.17 0 01-2.15 6.4 7.28 7.28 0 01-5.8 2.48zM50.62 80a3.66 3.66 0 00-3.08 1.42 6.92 6.92 0 00-1.21 4.06v.36a7.32 7.32 0 001.09 4.29 3.55 3.55 0 003.07 1.55 3.79 3.79 0 003.18-1.53 7 7 0 001.18-4.34c0-3.89-1.41-5.81-4.23-5.81zM69.33 87.31c0-1.14.61-1.71 1.69-1.71s1.61.63 1.61 1.88a15.22 15.22 0 01-.26 3 6.61 6.61 0 01-.73 2 4.81 4.81 0 01-4.32 2 5.66 5.66 0 01-2.39-.48 3.71 3.71 0 01-1.6-1.32 7.68 7.68 0 01-.89-4.19V81c0-.15 0-.23-.07-.23h-1a1.71 1.71 0 01-1.21-.45 1.45 1.45 0 01-.47-1.1 1.5 1.5 0 01.47-1.07 1.52 1.52 0 011.11-.48h1.23v-3.36c0-1.1.58-1.65 1.75-1.65a1.46 1.46 0 011.65 1.65v3.34h3.4c1.15 0 1.72.51 1.72 1.52s-.6 1.58-1.78 1.58H65.8a.25.25 0 01.1.23v7.72c0 1.89.54 2.84 1.62 2.84s1.75-.74 1.75-2.21zM81.67 94.61A7.15 7.15 0 0176 92.2a9.31 9.31 0 01-2.11-6.37A9.13 9.13 0 0176 79.49a7.22 7.22 0 015.74-2.44 7.39 7.39 0 015.78 2.38 9.17 9.17 0 012.08 6.3 9.17 9.17 0 01-2.15 6.4 7.29 7.29 0 01-5.78 2.48zM81.84 80a3.69 3.69 0 00-3.09 1.42 6.92 6.92 0 00-1.2 4.06v.36a7.32 7.32 0 001.09 4.29 3.54 3.54 0 003.07 1.55 3.79 3.79 0 003.18-1.53 7 7 0 001.17-4.34c0-3.89-1.41-5.81-4.22-5.81zM110.22 74.68L114.61 89l4.82-15.41a2 2 0 011.94-1.65h.17a5.47 5.47 0 01.92.1 5.24 5.24 0 00.79.16H124.57a8 8 0 001.39-.1l1-.17a1.86 1.86 0 01.62-.06c1.35 0 2 .51 2 1.55s-.58 1.52-1.58 1.52h-.42a2.7 2.7 0 01-.41 0l-.48-.05h-.24c-.69 0-1 .68-1 2v12.69c0 1.27.35 1.91 1.06 1.91a1 1 0 00.25 0h.24a2.83 2.83 0 01.53-.07h.4a.2.2 0 01.1 0c1 0 1.55.48 1.55 1.45a1.68 1.68 0 01-.53 1.26 1.53 1.53 0 01-1.39.33 5.42 5.42 0 00-1 0 3 3 0 01-.79-.09c-.53 0-1-.08-1.32-.13a9.56 9.56 0 00-1.09-.06h-1.37a13.25 13.25 0 00-1.37.19 7.5 7.5 0 01-1.12.1c-1.19 0-1.78-.5-1.78-1.49s.6-1.52 1.81-1.52h.32a.39.39 0 01.25 0 1 1 0 00.29 0h.46c.44 0 .73-.65.86-2v-1.15-3.44-1.75-1.43V77l-5.12 15.9A2.33 2.33 0 01116 94a2.45 2.45 0 01-1.44.41 2.92 2.92 0 01-1.56-.33 2.11 2.11 0 01-.78-1.19c-.83-2.57-1.68-5.19-2.52-7.85s-1.68-5.3-2.49-7.92l.16 12.27c0 1.26.27 1.88.73 1.88a3.86 3.86 0 00.82-.13h.5c1.18 0 1.78.52 1.78 1.55s-.61 1.56-1.82 1.56h-.26a1.77 1.77 0 01-.3 0 .53.53 0 00-.2 0l-1.47-.25a9.85 9.85 0 00-1.52-.1 13.89 13.89 0 00-2.18.1l-1.35.26a.25.25 0 00-.16 0h-.27q-2 0-2-1.56a1.36 1.36 0 01.46-1.07 1.57 1.57 0 011.06-.41h.53l.52.07a1.55 1.55 0 00.33 0 .43.43 0 01.17 0c.7 0 1-.63 1-1.91V76.72q0-1.84-1-2h-.3l-.46.05a2.68 2.68 0 01-.43 0h-.39c-1 0-1.52-.48-1.52-1.45s.66-1.55 2-1.55h.21a1.2 1.2 0 01.28 0l1.09.13a11.41 11.41 0 001.49.1h.67l.88-.1.92-.1h.66a2.14 2.14 0 012.16 2.02zM145.46 94.48a3.36 3.36 0 01-3.3-1.65 6.5 6.5 0 01-4.85 1.78 6.76 6.76 0 01-4.45-1.37 4.86 4.86 0 01-1-6.11 5.16 5.16 0 011.83-1.73 6.77 6.77 0 011.56-.66 24 24 0 012.54-.4 9.06 9.06 0 003.2-.69 1.71 1.71 0 00.56-1.48 2.11 2.11 0 00-.74-1.69 3.23 3.23 0 00-2.1-.62 4 4 0 00-2.34.72 1 1 0 00-.23.26 1.82 1.82 0 01.69 1.42 1.72 1.72 0 01-.61 1.36 2.27 2.27 0 01-1.53.52 2.39 2.39 0 01-1.75-.67 2.29 2.29 0 01-.7-1.7 4 4 0 012-3.33 7.39 7.39 0 014.52-1.36Q145 77.05 145 83v7.41a3.44 3.44 0 000 .61c.11.48.28.72.52.72s.57-.51.57-1.55V88.6c0-.94.49-1.42 1.48-1.42s1.58.64 1.58 1.92v1.94c0 2.29-1.25 3.44-3.69 3.44zm-4-7.89a2.5 2.5 0 00-.38.15l-.41.15a13.8 13.8 0 01-2.8.46c-2.07.2-3.11.93-3.11 2.21a1.87 1.87 0 00.71 1.53 3 3 0 002 .58 4 4 0 002.92-1 3.87 3.87 0 001.07-2.81zM154.5 77.61c.73 0 1.16.29 1.29.86a5.7 5.7 0 013.86-1.42 6.65 6.65 0 012.21.35 5.13 5.13 0 011.72 1 4.46 4.46 0 011.12 1.53 4.93 4.93 0 01.4 2 3.82 3.82 0 01-.83 2.56 2.73 2.73 0 01-2.21 1 2.32 2.32 0 01-1.6-.56 1.74 1.74 0 01-.64-1.38 1.63 1.63 0 01.54-1.19 1.75 1.75 0 011.24-.53h.09v-.16a1.5 1.5 0 00-.65-1.23 2.54 2.54 0 00-1.6-.49 2.7 2.7 0 00-2.77 1.91 12.44 12.44 0 00-.46 3.9v3.59a4.58 4.58 0 000 .7c.11 1 .25 1.45.43 1.45h.36a1.88 1.88 0 00.33 0 3 3 0 01.76-.13c1 0 1.52.47 1.52 1.42s-.61 1.55-1.82 1.55h-.74l-.87-.1c-.64-.07-1.09-.1-1.36-.1H152.91l-1.78.16c-1.21 0-1.82-.51-1.82-1.55s.57-1.39 1.72-1.39h.28a.51.51 0 01.28 0l.4.1h.26a.13.13 0 00.1 0q.3 0 .33-1v-.79a7.09 7.09 0 000-.79l-.1-7.1c-.05-.81-.15-1.27-.33-1.39h-.69.06a3.18 3.18 0 01-.82.1c-1 0-1.55-.48-1.55-1.45s.61-1.52 1.84-1.52a1.58 1.58 0 00.4 0l.59.05h1.08a1.86 1.86 0 00.28 0h.11a.34.34 0 01.15 0 3.11 3.11 0 01.8.04zM180.28 94.48a3.36 3.36 0 01-3.3-1.65 6.53 6.53 0 01-4.85 1.78 6.79 6.79 0 01-4.46-1.37 4.5 4.5 0 01-1.67-3.65 4.55 4.55 0 01.68-2.46 5.16 5.16 0 011.83-1.73 6.55 6.55 0 011.55-.66 24.5 24.5 0 012.54-.4 9 9 0 003.2-.69 1.68 1.68 0 00.56-1.48 2.08 2.08 0 00-.74-1.69 3.19 3.19 0 00-2.1-.62 4.09 4.09 0 00-2.34.72 1.26 1.26 0 00-.23.26 1.8 1.8 0 01.7 1.42 1.76 1.76 0 01-.61 1.36 2.28 2.28 0 01-1.54.52 2.41 2.41 0 01-1.75-.67 2.28 2.28 0 01-.69-1.7 4 4 0 011.95-3.33 7.39 7.39 0 014.52-1.36q6.24 0 6.24 5.91v7.41a4.82 4.82 0 000 .61c.11.48.29.72.53.72s.56-.51.56-1.55V88.6c0-.94.49-1.42 1.49-1.42s1.58.64 1.58 1.92v.16L184 91q-.06 3.48-3.72 3.48zm-4-7.89a2.5 2.5 0 00-.38.15l-.41.15a13.92 13.92 0 01-2.81.46c-2.07.2-3.1.93-3.1 2.21a1.84 1.84 0 00.71 1.53 3 3 0 002 .58 4 4 0 002.92-1 3.87 3.87 0 001.07-2.81zM193.48 87.31q.06-1.71 1.68-1.71c1.08 0 1.62.63 1.62 1.88a14.44 14.44 0 01-.27 3 6.62 6.62 0 01-.72 2 4.81 4.81 0 01-4.33 2 5.66 5.66 0 01-2.39-.47 3.77 3.77 0 01-1.6-1.32 7.77 7.77 0 01-.89-4.19V81c0-.15 0-.23-.07-.23h-1a1.69 1.69 0 01-1.2-.45 1.43 1.43 0 01-.48-1.1 1.47 1.47 0 01.48-1.07 1.52 1.52 0 011.1-.48h1.23v-3.36q0-1.65 1.74-1.65a1.45 1.45 0 011.62 1.65v3.34h3.4c1.14 0 1.71.51 1.71 1.52s-.59 1.58-1.78 1.58H190a.27.27 0 010 .25v7.7c0 1.89.54 2.84 1.62 2.84s1.75-.74 1.75-2.21zM204.1 73.52l-.1 4.92a6.36 6.36 0 012-1.07 7.27 7.27 0 012.23-.32 8 8 0 012.67.43 5.74 5.74 0 012 1.22 5.52 5.52 0 011.31 1.9 6.31 6.31 0 01.46 2.46v6.7a2.77 2.77 0 000 .59c.07.71.17 1.06.3 1.06h.23a1.22 1.22 0 00.33-.07 1.22 1.22 0 01.33-.07h.33c1.12 0 1.68.49 1.68 1.46s-.68 1.48-2 1.48a9.6 9.6 0 01-1.22-.1l-1.24-.11a7.78 7.78 0 00-.89 0h-.65l-.54.05a12.27 12.27 0 01-1.68.2 1.91 1.91 0 01-1.32-.46 1.45 1.45 0 01-.53-1.16 1.25 1.25 0 01.48-1 1.72 1.72 0 011.14-.41 3.08 3.08 0 011 .2h.36c.24 0 .38-.53.43-1.58v-.57-.92-.66-2.32a9.55 9.55 0 00-.56-4.06 2.74 2.74 0 00-2.7-1.42 3.51 3.51 0 00-3.17 1.49 7.17 7.17 0 00-.73 3.49v2.56a2.17 2.17 0 010 .38v1.9a4 4 0 000 .64c.07.75.2 1.12.4 1.12h.23l.39-.07a1.42 1.42 0 01.38-.08h.35c1 0 1.55.47 1.55 1.39s-.64 1.55-1.91 1.55a12.41 12.41 0 01-1.39-.1L203 94h-.89a13.34 13.34 0 00-1.42.1l-1.07.1h-.58c-1.21 0-1.81-.53-1.81-1.58 0-.9.57-1.36 1.72-1.36a3.35 3.35 0 01.72.07 2.1 2.1 0 00.43.07h.23s.07-.19.1-.56a31.62 31.62 0 00.23-3.83V84.2v-2.8a50.73 50.73 0 00-.2-5.84c-.06-.53-.16-.82-.29-.86a.53.53 0 01-.22.05h-.31a1.49 1.49 0 01-.43.06h-.43c-1.06 0-1.58-.47-1.58-1.41a1.32 1.32 0 01.52-1.09 2 2 0 011.29-.43c.15 0 .53 0 1.12.1h2.05a1.86 1.86 0 01.34-.05h.35c.83 0 1.25.49 1.25 1.49zM226.84 94.61a7.14 7.14 0 01-5.64-2.41 9.32 9.32 0 01-2.12-6.37 9.13 9.13 0 012.12-6.34 7.21 7.21 0 015.74-2.44 7.37 7.37 0 015.77 2.38 9.12 9.12 0 012.08 6.3 9.17 9.17 0 01-2.14 6.4 7.3 7.3 0 01-5.81 2.48zM227 80a3.67 3.67 0 00-3.08 1.42 6.92 6.92 0 00-1.21 4.06v.36a7.39 7.39 0 001.09 4.29 3.55 3.55 0 003.07 1.55 3.81 3.81 0 003.19-1.53 7 7 0 001.17-4.34c0-3.89-1.41-5.81-4.23-5.81zM241.59 77.61a1.25 1.25 0 011.42 1 6.49 6.49 0 014.49-1.59 6.83 6.83 0 013.5.98 5.1 5.1 0 012.28 2.34 7.52 7.52 0 01.49 2.94v7.49c0 .35.1.57.23.66h.43a3.42 3.42 0 00.43 0h.63a1.51 1.51 0 011.05.42 1.25 1.25 0 01.46 1 1.4 1.4 0 01-.52 1.11 2 2 0 01-1.29.44h-.51a6 6 0 01-.71-.09l-1.14-.31a9.69 9.69 0 00-1 0h-.68l-.61.05-1.19.15h-.52c-1.19 0-1.78-.51-1.78-1.55s.52-1.39 1.58-1.39a.78.78 0 00.26 0h.25a1 1 0 00.25 0h.56c.15 0 .24-.42.26-1.25a7.32 7.32 0 010-.81V84.31a10.88 10.88 0 00-.16-2.21 2.69 2.69 0 00-.37-.91 2.35 2.35 0 00-.62-.67 3.5 3.5 0 00-2-.66 3.42 3.42 0 00-3.06 1.58 8.44 8.44 0 00-.66 4v4.16a8.59 8.59 0 00.08 1.52c.05.26.15.39.28.39h.2l.36-.07.38-.1a2.76 2.76 0 01.44 0 1.33 1.33 0 011.52 1.49c0 1-.59 1.48-1.78 1.48a6.39 6.39 0 01-.64-.06l-1.1-.25a11 11 0 00-1.46-.09h-.71c-.27 0-.6 0-1 .1l-.73.06a3.83 3.83 0 01-.56.09h-.33c-1.23 0-1.85-.5-1.85-1.52s.51-1.42 1.52-1.42h.53a3.74 3.74 0 00.89.1c.27 0 .41-.45.43-1.35v-1.74-5.4l-.07-1.09a10.13 10.13 0 00-.13-1c0-.21-.12-.34-.23-.38a1.11 1.11 0 01-.3.05 2.39 2.39 0 00-.36 0h-.7c-1.1 0-1.65-.48-1.65-1.45s.64-1.45 1.92-1.45h.21a.4.4 0 01.22 0l1.09.14h.79l.44-.05z"/></g><g data-name="Layer 2"><path d="M1.94 61.77l-.53-2.05q4.27-4.09 9.08-8.63a89.58 89.58 0 008.81-9.62A55.11 55.11 0 0026 30.71a28.42 28.42 0 002.67-12.2q0-6.32-2.58-9.74a7.89 7.89 0 00-6.58-3.43 7.31 7.31 0 00-3.28.66A6.62 6.62 0 0014 7.74a8.24 8.24 0 00-1.38 2.32 8.33 8.33 0 00-.62 2.49 10.42 10.42 0 012.54 3.29 8.5 8.5 0 011.11 3.83 5.81 5.81 0 01-1.51 4 6 6 0 01-4.63 1.65A6.12 6.12 0 015 23.54C3.8 22.33 3.19 20.47 3.19 18a15.35 15.35 0 011.42-6.77 14.26 14.26 0 013.83-4.91 16.76 16.76 0 015.65-3 23 23 0 016.9-1 28.07 28.07 0 017.39.94 16.82 16.82 0 016.05 2.94 14.23 14.23 0 014.09 5.11A17.2 17.2 0 0140 18.87a19.83 19.83 0 01-2.63 10.19 41.64 41.64 0 01-6.54 8.41A99.57 99.57 0 0122.46 45a79.18 79.18 0 00-8.15 7.38h13.35a38.42 38.42 0 005.43-.38 13.71 13.71 0 003.79-1A12.22 12.22 0 0040 48.86q1.47-1.34 3.34-3.38l1.24 1.24c-1.36 2.5-2.67 5-3.91 7.48s-2.4 5-3.47 7.57zM88.18 0v1.78q-3.55 3.56-7.61 7.92t-8.27 9l-8.46 9.35q-4.23 4.67-8.23 8.77h21V19.76l10-10v52h-10V45.57H47.24l-.89-2.76q6.42-6.5 12.42-13t11-12.28q5-5.78 8.59-10.37T83.65 0zM163.74 61.77l-.53-2.05q4.28-4.09 9.08-8.63a89.58 89.58 0 008.81-9.62 55.11 55.11 0 006.67-10.76 28.42 28.42 0 002.67-12.2q0-6.32-2.58-9.74a7.89 7.89 0 00-6.58-3.43A7.31 7.31 0 00178 6a6.62 6.62 0 00-2.27 1.73 8.24 8.24 0 00-1.38 2.32 8.33 8.33 0 00-.58 2.49 10.42 10.42 0 012.54 3.29 8.5 8.5 0 011.11 3.83 5.81 5.81 0 01-1.51 4 6 6 0 01-4.63 1.65 6.12 6.12 0 01-4.5-1.83C165.6 22.33 165 20.47 165 18a15.35 15.35 0 011.42-6.77 14.26 14.26 0 013.83-4.89 16.76 16.76 0 015.65-3 23 23 0 016.9-1 28.07 28.07 0 017.39.94 16.82 16.82 0 016 2.94 14.23 14.23 0 014.09 5.11 17.2 17.2 0 011.51 7.57 19.83 19.83 0 01-2.62 10.19 41.64 41.64 0 01-6.54 8.41 99.57 99.57 0 01-8.37 7.5 79.18 79.18 0 00-8.15 7.38h13.35a38.42 38.42 0 005.43-.31 13.71 13.71 0 003.79-1.07 12.22 12.22 0 003.11-2.09q1.47-1.34 3.34-3.38l1.24 1.24c-1.36 2.5-2.67 5-3.91 7.48s-2.4 5-3.47 7.57zM250 0v1.78q-3.55 3.56-7.6 7.92t-8.28 9l-8.46 9.35q-4.23 4.67-8.23 8.77h21V19.76l10-10v52h-10V45.57H209l-.89-2.76q6.42-6.5 12.42-13t11-12.28q5-5.78 8.59-10.37T245.45 0z"/></g></svg>